<svg width="26" height="19" fill="none" xmlns="http://www.w3.org/2000/svg"><path d="M6.372 7.536a1 1 0 10-1.457 1.37l1.457-1.37zm8.084 10.048l-.729.685a1 1 0 001.58-.162l-.851-.523zm10.49-15.173a1 1 0 00-1.705-1.047l1.705 1.047zM4.916 8.907l8.811 9.362 1.457-1.37-8.812-9.363-1.457 1.37zm10.392 9.2l9.638-15.696-1.705-1.047-9.638 15.697 1.705 1.046zM1.966 7.811a1 1 0 10-1.457 1.37l1.457-1.37zM9.32 18.545a1 1 0 101.457-1.371l-1.457 1.37zM20.538 2.688a1 1 0 00-1.701-1.05l1.701 1.05zM13.054 11a1 1 0 101.702 1.051l-1.702-1.05zM.509 9.182l8.812 9.363 1.457-1.371-8.812-9.363-1.457 1.37zm14.247 2.87l5.782-9.364-1.701-1.05L13.054 11l1.702 1.051z" fill="#fff"/></svg>