<svg width="42" height="42" viewBox="0 0 42 42" fill="none" xmlns="http://www.w3.org/2000/svg">
<g clip-path="url(#clip0)">
<path d="M21.8009 36.575C21.8009 36.1482 22.1441 35.8037 22.571 35.8037H25.2193C26.3328 36.5511 27.5904 37.069 28.9266 37.3109C28.8706 37.3238 28.8201 37.3438 28.7619 37.3438H22.5708C22.1441 37.3452 21.8009 36.9993 21.8009 36.575ZM19.9187 30.4105H21.2909C21.1453 29.9038 21.0388 29.3911 20.9781 28.8692H19.9187C19.4931 28.8692 19.1478 29.2149 19.1478 29.6405C19.1478 30.0661 19.4931 30.4105 19.9187 30.4105ZM14.2482 10.9478C13.3028 10.3125 12.6518 9.0541 12.6518 7.92317C12.6518 6.32651 13.9449 5.03084 15.5426 5.03084C17.1403 5.03084 18.4335 6.32651 18.4335 7.92317C18.4335 9.0543 17.7812 10.3125 16.8344 10.9478C19.1004 11.5221 20.7784 13.4911 20.7784 14.9475C20.7784 16.67 10.3075 16.67 10.3075 14.9475C10.3067 13.4909 11.9862 11.5233 14.2482 10.9478ZM14.0735 14.7741L15.5414 16.2395L17.0105 14.7741L15.775 11.7881H15.7864L16.2665 11.2396C16.0327 11.3214 15.7954 11.3719 15.5414 11.3719C15.2901 11.3719 15.0501 11.3212 14.8163 11.2371L15.2951 11.7881H15.3078L14.0735 14.7741ZM33.4241 40.3191L33.4268 40.3166L33.39 40.2519C33.3709 40.2519 33.3544 40.2567 33.3367 40.2567H6.49999C5.11259 40.2567 3.98394 39.1283 3.98394 37.7413V4.19174C3.98394 2.80538 5.11259 1.67695 6.49999 1.67695H33.337C34.7239 1.67695 35.8524 2.80538 35.8524 4.19174V19.5472C36.4541 19.9272 37.0228 20.359 37.5306 20.8645V4.19174C37.5306 1.87954 35.6498 0 33.337 0H6.49999C4.18654 0 2.30554 1.87954 2.30554 4.19174V37.7415C2.30554 40.0529 4.18633 41.9326 6.49978 41.9326H33.3367C33.6635 41.9326 33.9803 41.8856 34.288 41.8136L33.4241 40.3191ZM11.0761 26.8983H20.9587C21.0055 26.3827 21.091 25.8687 21.2208 25.3568H11.0774C10.6518 25.3568 10.308 25.7013 10.308 26.127C10.3067 26.5551 10.6505 26.8983 11.0761 26.8983ZM11.0761 19.8752H24.9243C25.1979 19.6764 25.4831 19.4883 25.7805 19.3161C26.5356 18.8803 27.346 18.5523 28.1834 18.3326H11.0761C10.6505 18.3326 10.3067 18.6779 10.3067 19.1045C10.3067 19.5312 10.6505 19.8752 11.0761 19.8752ZM11.0761 23.3861H21.9478C22.219 22.8416 22.5381 22.3261 22.9029 21.8448H11.0761C10.6505 21.8448 10.3067 22.1905 10.3067 22.6161C10.3067 23.0417 10.6505 23.3861 11.0761 23.3861ZM37.4001 23.855C39.5482 27.5762 38.269 32.3535 34.5453 34.4993C30.8253 36.6461 26.0488 35.3731 23.9008 31.6469C21.7514 27.9269 23.0319 23.1505 26.7506 21.002C30.4744 18.8531 35.2521 20.1317 37.4001 23.855ZM36.2842 24.5009C34.4893 21.3951 30.5035 20.3274 27.399 22.1169C24.292 23.913 23.2218 27.8938 25.0202 31.0035C26.8112 34.1091 30.7959 35.1793 33.9027 33.3858C37.0087 31.5885 38.0751 27.6064 36.2842 24.5009ZM36.5059 34.0205L33.1558 35.956L35.7359 40.4219L39.0848 38.4891L36.5059 34.0205ZM39.4342 39.0969L36.0816 41.0309C36.6187 41.9594 37.8018 42.2735 38.7262 41.7414C39.652 41.2069 39.9699 40.0214 39.4342 39.0969Z" fill="#F95E5E"/>
</g>
<defs>
<clipPath id="clip0">
<rect width="42" height="42" fill="white"/>
</clipPath>
</defs>
</svg>
