<svg width="36" height="36" viewBox="0 0 36 36" fill="none" xmlns="http://www.w3.org/2000/svg">
<path d="M12.6562 7.73438C12.6562 5.79586 11.0791 4.21875 9.14062 4.21875C7.20211 4.21875 5.625 5.79586 5.625 7.73438C5.625 9.67289 7.20211 11.25 9.14062 11.25C11.0791 11.25 12.6562 9.67289 12.6562 7.73438ZM9.14062 9.84375C7.97752 9.84375 7.03125 8.89748 7.03125 7.73438C7.03125 6.57127 7.97752 5.625 9.14062 5.625C10.3037 5.625 11.25 6.57127 11.25 7.73438C11.25 8.89748 10.3037 9.84375 9.14062 9.84375Z" fill="#F95E5E"/>
<path d="M9.14062 18.2812C14.2423 18.2812 18.2812 14.1222 18.2812 9.14062C18.2812 4.10048 14.1808 0 9.14062 0C4.10041 0 0 4.10048 0 9.14062C0 14.1218 4.03826 18.2812 9.14062 18.2812ZM5.62852 16.0321C5.70227 14.1582 7.24894 12.6562 9.14062 12.6562C11.0323 12.6562 12.579 14.1582 12.6527 16.0321C11.5713 16.584 10.3657 16.875 9.14062 16.875C7.91557 16.875 6.70992 16.584 5.62852 16.0321ZM9.14062 1.40625C13.4054 1.40625 16.875 4.87589 16.875 9.14062C16.875 11.5036 15.782 13.7294 13.9631 15.1854C13.505 12.9426 11.5168 11.25 9.14062 11.25C6.76448 11.25 4.77626 12.9426 4.31817 15.1854C2.49933 13.7294 1.40625 11.5037 1.40625 9.14062C1.40625 4.87589 4.87589 1.40625 9.14062 1.40625Z" fill="#F95E5E"/>
<path d="M30.375 25.4531C30.375 23.5146 28.7979 21.9375 26.8594 21.9375C24.9209 21.9375 23.3438 23.5146 23.3438 25.4531C23.3438 27.3916 24.9209 28.9688 26.8594 28.9688C28.7979 28.9688 30.375 27.3916 30.375 25.4531ZM26.8594 27.5625C25.6963 27.5625 24.75 26.6162 24.75 25.4531C24.75 24.29 25.6963 23.3438 26.8594 23.3438C28.0225 23.3438 28.9688 24.29 28.9688 25.4531C28.9688 26.6162 28.0225 27.5625 26.8594 27.5625Z" fill="#F95E5E"/>
<path d="M26.8594 17.7188C21.8192 17.7188 17.7188 21.8192 17.7188 26.8594C17.7188 31.841 21.7569 36 26.8594 36C31.961 36 36 31.8409 36 26.8594C36 21.8192 31.8996 17.7188 26.8594 17.7188ZM23.3473 33.7508C23.421 31.8769 24.9677 30.375 26.8594 30.375C28.7511 30.375 30.2977 31.8769 30.3715 33.7508C29.2901 34.3028 28.0844 34.5938 26.8594 34.5938C25.6343 34.5938 24.4287 34.3028 23.3473 33.7508ZM31.6818 32.9041C31.2237 30.6614 29.2355 28.9688 26.8594 28.9688C24.4832 28.9688 22.495 30.6614 22.0369 32.9041C20.2181 31.4482 19.125 29.2224 19.125 26.8594C19.125 22.5946 22.5946 19.125 26.8594 19.125C31.1241 19.125 34.5938 22.5946 34.5938 26.8594C34.5938 29.2224 33.5007 31.4481 31.6818 32.9041Z" fill="#F95E5E"/>
<path d="M16.5938 32.7656C13.8798 32.7656 11.6719 30.5577 11.6719 27.8438V27.1406H12.375C12.6414 27.1406 12.8848 26.9902 13.0039 26.7519C13.123 26.5137 13.0973 26.2287 12.9375 26.0156L8.71876 20.3906C8.58594 20.2136 8.37753 20.1094 8.15626 20.1094C7.93499 20.1094 7.72658 20.2136 7.59376 20.3906L3.37501 26.0156C3.21526 26.2287 3.18946 26.5137 3.30864 26.7519C3.42782 26.9902 3.67117 27.1406 3.93751 27.1406H4.64064V27.8438C4.64064 31.3331 7.47943 34.1719 10.9688 34.1719H16.5938C16.982 34.1719 17.2969 33.8571 17.2969 33.4688C17.2969 33.0804 16.982 32.7656 16.5938 32.7656ZM10.9688 32.7656C8.25477 32.7656 6.04689 30.5577 6.04689 27.8438V26.4375C6.04689 26.0492 5.73203 25.7344 5.34376 25.7344L8.15626 21.9844L10.9688 25.7344C10.5805 25.7344 10.2656 26.0492 10.2656 26.4375V27.8438C10.2656 29.8295 11.185 31.6046 12.6205 32.7656H10.9688Z" fill="#F95E5E"/>
<path d="M19.4062 3.23438C22.1202 3.23438 24.3281 5.44233 24.3281 8.15625V8.85938H23.625C23.3587 8.85938 23.1152 9.00984 22.9961 9.24806C22.877 9.48628 22.9028 9.77133 23.0625 9.98438L27.2812 15.6094C27.4141 15.7864 27.6225 15.8906 27.8438 15.8906C28.065 15.8906 28.2734 15.7864 28.4062 15.6094L32.625 9.98438C32.7847 9.77133 32.8106 9.48628 32.6914 9.24806C32.5722 9.00984 32.3288 8.85938 32.0625 8.85938H31.3594V8.15625C31.3594 7.96669 31.3509 7.77523 31.3341 7.58714C31.2995 7.20035 30.958 6.91488 30.5712 6.94934C30.1844 6.98386 29.8988 7.32544 29.9334 7.71223C29.9465 7.85883 29.9531 8.00824 29.9531 8.15618V9.56243C29.9531 9.95076 30.268 10.2656 30.6562 10.2656L27.8438 14.0155L25.0312 10.2656C25.4195 10.2656 25.7344 9.95084 25.7344 9.5625V8.15625C25.7344 6.17048 24.815 4.39545 23.3795 3.23438H25.0312C25.5935 3.23438 26.1446 3.32824 26.6692 3.51337C27.0356 3.6424 27.437 3.45045 27.5662 3.08426C27.6955 2.71807 27.5034 2.31645 27.1372 2.18721C26.4619 1.94892 25.7534 1.82812 25.0312 1.82812H19.4062C19.018 1.82812 18.7031 2.14291 18.7031 2.53125C18.7031 2.91959 19.018 3.23438 19.4062 3.23438Z" fill="#F95E5E"/>
<path d="M29.4609 5.41406C29.8493 5.41406 30.1641 5.09926 30.1641 4.71094C30.1641 4.32261 29.8493 4.00781 29.4609 4.00781C29.0726 4.00781 28.7578 4.32261 28.7578 4.71094C28.7578 5.09926 29.0726 5.41406 29.4609 5.41406Z" fill="#F95E5E"/>
</svg>
