<svg width="53" height="53" viewBox="0 0 53 53" fill="none" xmlns="http://www.w3.org/2000/svg">
<rect width="53" height="53" rx="10" fill="#F88081"/>
<path d="M20.3717 23.5358C19.9932 23.1336 19.3603 23.1145 18.9581 23.493C18.556 23.8715 18.5368 24.5044 18.9153 24.9065L20.3717 23.5358ZM28.4555 33.584L27.7273 34.2693C27.9408 34.4961 28.2477 34.6105 28.5576 34.5788C28.8674 34.547 29.1447 34.3727 29.3077 34.1072L28.4555 33.584ZM38.9459 18.4108C39.2349 17.9401 39.0876 17.3243 38.617 17.0353C38.1463 16.7464 37.5305 16.8936 37.2415 17.3642L38.9459 18.4108ZM18.9153 24.9065L27.7273 34.2693L29.1837 32.8986L20.3717 23.5358L18.9153 24.9065ZM29.3077 34.1072L38.9459 18.4108L37.2415 17.3642L27.6034 33.0607L29.3077 34.1072Z" fill="white"/>
<path d="M15.9657 23.8112C15.5872 23.409 14.9543 23.3898 14.5521 23.7684C14.1499 24.1469 14.1308 24.7798 14.5093 25.1819L15.9657 23.8112ZM23.3213 34.5447C23.6999 34.9469 24.3327 34.9661 24.7349 34.5876C25.1371 34.209 25.1563 33.5762 24.7777 33.174L23.3213 34.5447ZM34.5385 18.6884C34.8287 18.2185 34.6831 17.6023 34.2132 17.3121C33.7433 17.0219 33.1271 17.1675 32.8369 17.6374L34.5385 18.6884ZM27.054 27.0002C26.7638 27.4701 26.9094 28.0863 27.3793 28.3765C27.8492 28.6667 28.4654 28.5211 28.7556 28.0512L27.054 27.0002ZM14.5093 25.1819L23.3213 34.5447L24.7777 33.174L15.9657 23.8112L14.5093 25.1819ZM28.7556 28.0512L34.5385 18.6884L32.8369 17.6374L27.054 27.0002L28.7556 28.0512Z" fill="white"/>
</svg>
