<svg width="26" height="19" viewBox="0 0 26 19" fill="none" xmlns="http://www.w3.org/2000/svg">
<path d="M6.37169 7.53581C5.99318 7.13363 5.3603 7.11446 4.95813 7.49297C4.55596 7.87149 4.53678 8.50436 4.91529 8.90654L6.37169 7.53581ZM14.4555 17.584L13.7273 18.2693C13.9408 18.4961 14.2477 18.6105 14.5576 18.5788C14.8674 18.547 15.1447 18.3727 15.3077 18.1072L14.4555 17.584ZM24.9459 2.41078C25.2349 1.94013 25.0876 1.32433 24.617 1.03534C24.1463 0.746351 23.5305 0.893608 23.2415 1.36425L24.9459 2.41078ZM4.91529 8.90654L13.7273 18.2693L15.1837 16.8986L6.37169 7.53581L4.91529 8.90654ZM15.3077 18.1072L24.9459 2.41078L23.2415 1.36425L13.6034 17.0607L15.3077 18.1072Z" fill="white"/>
<path d="M1.96569 7.8112C1.58717 7.40902 0.954297 7.38985 0.552123 7.76836C0.149949 8.14688 0.130771 8.77975 0.509288 9.18193L1.96569 7.8112ZM9.32134 18.5447C9.69985 18.9469 10.3327 18.9661 10.7349 18.5876C11.1371 18.209 11.1563 17.5762 10.7777 17.174L9.32134 18.5447ZM20.5385 2.6884C20.8287 2.21851 20.6831 1.60233 20.2132 1.3121C19.7433 1.02188 19.1271 1.16753 18.8369 1.63741L20.5385 2.6884ZM13.054 11.0002C12.7638 11.4701 12.9094 12.0863 13.3793 12.3765C13.8492 12.6667 14.4654 12.5211 14.7556 12.0512L13.054 11.0002ZM0.509288 9.18193L9.32134 18.5447L10.7777 17.174L1.96569 7.8112L0.509288 9.18193ZM14.7556 12.0512L20.5385 2.6884L18.8369 1.63741L13.054 11.0002L14.7556 12.0512Z" fill="white"/>
</svg>
