<svg width="44" height="44" viewBox="0 0 44 44" fill="none" xmlns="http://www.w3.org/2000/svg">
<g clip-path="url(#clip0)">
<path d="M42.6452 15.1754C39.0808 3.78956 26.9209 -2.57333 15.5328 0.989633C4.14622 4.55406 -2.21744 16.7169 1.3463 28.1027L2.74553 27.6644C-0.577064 17.0504 5.35562 5.71137 15.9711 2.38809C21.1136 0.779258 26.5749 1.26884 31.3473 3.7661C36.1218 6.26481 39.6371 10.472 41.2467 15.6138C42.8556 20.7555 42.3667 26.2161 39.8687 30.9899C37.3715 35.7644 33.1643 39.2798 28.0219 40.8894C19.4146 43.583 9.97991 40.1814 5.07271 32.6157L3.84278 33.4132C7.89902 39.6683 14.8416 43.2701 22.0386 43.2693C24.1789 43.2693 26.3433 42.9512 28.4594 42.2872C33.975 40.561 38.4879 36.7899 41.1676 31.6694C43.8473 26.5489 44.3713 20.691 42.6452 15.1754Z" fill="#F95E5E"/>
<path d="M17.7478 10.2617L18.1685 8.85728L10.8388 6.6584C10.5823 6.58071 10.3016 6.65109 10.1103 6.84239L8.64435 8.30831C8.47359 8.47907 8.39805 8.72313 8.44205 8.96066C8.48605 9.1981 8.64435 9.39825 8.86495 9.49648L15.4617 12.4283L16.0569 11.0885L10.4358 8.58975L10.8375 8.18808L17.7478 10.2617Z" fill="#F95E5E"/>
<path d="M24.5563 5.89543C24.5563 5.49084 24.2286 5.16248 23.8233 5.16248C23.8226 5.16248 23.8226 5.16248 23.8219 5.16248C22.2094 5.16248 20.6928 5.79059 19.5524 6.93115L13.3368 13.146L10.8074 12.5134C10.5575 12.4511 10.2935 12.5236 10.111 12.7061L8.6451 14.1721C8.48534 14.3318 8.40765 14.5561 8.4355 14.7797C8.46334 15.0032 8.59233 15.2026 8.78586 15.3185L12.2938 17.4235L14.3989 20.9315C14.5147 21.125 14.7133 21.254 14.9376 21.2818C14.9669 21.2855 14.997 21.287 15.0271 21.287C15.2198 21.287 15.4067 21.2108 15.546 21.073L17.012 19.6071C17.1937 19.4245 17.267 19.1607 17.2047 18.9107L16.5729 16.3842L22.8874 10.132C23.9648 9.00387 24.5578 7.52188 24.5563 5.89543ZM15.244 15.6351C15.06 15.8168 14.986 16.0822 15.0483 16.3336L15.6809 18.863L15.1722 19.3717L13.4563 16.5117C13.394 16.4083 13.3082 16.3219 13.2049 16.2603L10.3449 14.5444L10.8536 14.0358L13.3831 14.6683C13.633 14.7307 13.8969 14.6581 14.0794 14.4756L20.5882 7.96687C21.2625 7.29183 22.1112 6.85424 23.0319 6.69517C22.8867 7.60112 22.474 8.44107 21.8408 9.10442L15.244 15.6351Z" fill="#F95E5E"/>
<path d="M23.0589 18.9752L20.86 11.5503L19.4542 11.9667L21.5204 18.943L21.0755 19.336L18.6317 13.6672L17.2853 14.2477L20.1292 20.8444C20.2223 21.0599 20.4129 21.2182 20.6423 21.2695C20.6958 21.2812 20.7492 21.2872 20.8028 21.2872C20.9795 21.2872 21.1524 21.2234 21.2873 21.1039L22.8412 19.7333C23.0552 19.5447 23.1395 19.2493 23.0589 18.9752Z" fill="#F95E5E"/>
<path d="M14.3175 40.4152C9.09732 42.8889 5.00223 43.2085 3.0848 41.2918C-0.238485 37.9685 3.37062 28.3132 11.4794 18.8315L10.3653 17.8787C1.47158 28.278 -1.94915 38.332 2.04771 42.3282C3.16403 43.4438 4.74064 44.0001 6.69614 44.0001C8.97563 44.0001 11.7697 43.2445 14.9449 41.7396L14.3175 40.4152Z" fill="#F95E5E"/>
<path d="M39.1291 25.3388C39.0016 25.1006 38.7532 24.9518 38.4826 24.9518H36.0038L34.0072 20.9593C33.8826 20.7109 33.629 20.554 33.3511 20.554H26.0215C25.6161 20.554 25.2885 20.8823 25.2885 21.2869V27.1507C25.2885 27.556 25.6162 27.8836 26.0215 27.8836H28.2203V35.9463C28.2203 36.3516 28.5479 36.6792 28.9533 36.6792H32.6181C32.8123 36.6792 32.9985 36.6022 33.1371 36.4637L36.0689 33.5319C36.2067 33.3948 36.2837 33.2087 36.2837 33.0137V30.3039L39.0924 26.0908C39.242 25.8665 39.2567 25.577 39.1291 25.3388ZM34.9402 29.6758C34.8603 29.796 34.8171 29.9381 34.8171 30.0826V32.711L32.3147 35.2133H29.6864H29.6856V27.1507C29.6856 26.7453 29.358 26.4177 28.9526 26.4177H26.7537V22.02H32.8975L34.8941 26.0124C35.0187 26.2609 35.2723 26.4178 35.55 26.4178H37.1127L34.9402 29.6758Z" fill="#F95E5E"/>
<path d="M39.64 19.088L36.9192 14.3266C36.7888 14.0979 36.5454 13.9572 36.2831 13.9572H31.8853C31.6405 13.9572 31.4118 14.0796 31.2755 14.2833L30.0272 16.1561H28.2205V12.4913H31.8853C32.0803 12.4913 32.2657 12.4143 32.4035 12.2765L35.1206 9.55942H38.4819V8.09351H34.8171C34.6221 8.09351 34.4367 8.17051 34.2989 8.30826L31.5819 11.0253H27.4875C27.0822 11.0253 26.7546 11.3537 26.7546 11.7583V16.889C26.7546 17.2936 27.0823 17.622 27.4875 17.622H30.4194C30.6642 17.622 30.8929 17.4996 31.0292 17.2958L32.2774 15.4231H35.858L38.5788 20.1845C38.7092 20.4131 38.9526 20.5539 39.215 20.5539H42.1468V19.088H39.64Z" fill="#F95E5E"/>
<path d="M21.6237 26.4178H17.5294L15.5453 24.4336C15.4082 24.2958 15.2213 24.2189 15.0271 24.2189H11.3623C10.9577 24.2189 10.6293 24.5466 10.6293 24.9518V30.0825C10.6293 30.4879 10.9577 30.8155 11.3623 30.8155H14.2941V38.1452C14.2941 38.423 14.451 38.6766 14.6995 38.8012C14.8029 38.8525 14.9157 38.8782 15.0272 38.8782C15.1826 38.8782 15.3372 38.8291 15.4669 38.7315L18.3988 36.5327C18.5834 36.3941 18.692 36.1765 18.692 35.9463V34.0993L22.082 31.388C22.2556 31.2488 22.3568 31.0384 22.3568 30.8156V27.1508C22.3567 26.7454 22.0283 26.4178 21.6237 26.4178ZM20.8908 30.4638L17.5008 33.175C17.3271 33.3143 17.226 33.5246 17.226 33.7474V35.5799L15.7601 36.6794V30.0826C15.7601 29.6773 15.4317 29.3497 15.0271 29.3497H12.0953V25.6849H14.7237L16.7078 27.669C16.8448 27.8068 17.0318 27.8838 17.226 27.8838H20.8908V30.4638Z" fill="#F95E5E"/>
<path d="M6.85963 15.7787L4.66075 12.1139C4.52883 11.8933 4.28984 11.7584 4.03263 11.7584H3.29967V13.2243H3.61781L5.3088 16.0426L3.51452 17.8369C3.37667 17.9739 3.29976 18.1608 3.29976 18.3551V20.5539H1.10071V22.0199H4.03255C4.43714 22.0199 4.76551 21.6915 4.76551 21.2869V18.6585L6.74963 16.6744C6.98716 16.4362 7.03262 16.0675 6.85963 15.7787Z" fill="#F95E5E"/>
<path d="M23.0904 0.763794V1.65797L20.7134 2.2524C20.632 2.27294 20.5544 2.3074 20.4847 2.35355L18.6398 3.58348L14.6225 1.57444L13.9665 2.88567L18.3642 5.08455C18.4676 5.13586 18.5798 5.16155 18.6919 5.16155C18.8341 5.16155 18.9756 5.11979 19.098 5.0384L21.1913 3.64287L24.0008 2.94067C24.3269 2.85929 24.5564 2.56616 24.5564 2.22971V0.763794H23.0904Z" fill="#F95E5E"/>
</g>
<defs>
<clipPath id="clip0">
<rect width="44" height="44" fill="white"/>
</clipPath>
</defs>
</svg>
