<svg width="56" height="56" viewBox="0 0 56 56" fill="none" xmlns="http://www.w3.org/2000/svg">
<rect width="56" height="56" rx="10" fill="#FF848B"/>
<path d="M21.9062 18.5234C23.3171 18.5234 24.6106 18.9705 25.7507 19.8523C26.8438 20.6976 27.5716 21.7744 28 22.5573C28.4284 21.7743 29.1562 20.6976 30.2493 19.8523C31.3894 18.9705 32.6829 18.5234 34.0938 18.5234C38.0309 18.5234 41 21.7438 41 26.0144C41 30.6281 37.2959 33.7847 31.6883 38.5633C30.736 39.3749 29.6567 40.2947 28.5348 41.2758C28.387 41.4053 28.197 41.4766 28 41.4766C27.803 41.4766 27.613 41.4053 27.4652 41.2758C26.3432 40.2946 25.2639 39.3748 24.3111 38.5628C18.7041 33.7847 15 30.6281 15 26.0144C15 21.7438 17.9691 18.5234 21.9062 18.5234Z" fill="white"/>
</svg>
