<svg width="44" height="44" viewBox="0 0 44 44" fill="none" xmlns="http://www.w3.org/2000/svg">
<g clip-path="url(#clip0)">
<path d="M41.7437 2.58105H28.0252C26.7797 2.58105 25.7689 3.59189 25.7689 4.83738V18.5559C25.7689 19.8014 26.7797 20.8122 28.0252 20.8122H34.5911C34.5054 24.4043 33.6705 27.2788 32.0911 29.4404C30.8456 31.1462 28.9594 32.5586 26.4367 33.6732C25.277 34.1832 24.7761 35.555 25.3176 36.7013L26.9422 40.1309C27.4656 41.2319 28.7608 41.7148 29.8799 41.2319C32.8673 39.9413 35.3899 38.3077 37.4476 36.3222C39.9567 33.8989 41.676 31.1642 42.6056 28.1137C43.5353 25.0631 44 20.9024 44 15.6226V4.83738C44 3.59193 42.9891 2.58105 41.7437 2.58105Z" fill="#F88081"/>
<path d="M4.78503 41.2229C7.7363 39.9368 10.2453 38.3033 12.3166 36.3222C14.8482 33.8989 16.5766 31.1732 17.5062 28.1452C18.4358 25.1172 18.9006 20.943 18.9006 15.6226V4.83738C18.9006 3.59189 17.8898 2.58105 16.6442 2.58105H2.92577C1.68027 2.58105 0.669441 3.59189 0.669441 4.83738V18.5558C0.669441 19.8014 1.68027 20.8122 2.92577 20.8122H9.49168C9.40594 24.4043 8.5711 27.2788 6.99167 29.4404C5.74618 31.1462 3.85989 32.5586 1.33731 33.6732C0.177562 34.1832 -0.323343 35.555 0.218175 36.7013L1.83822 40.1219C2.36173 41.2229 3.66589 41.7103 4.78503 41.2229Z" fill="#F88081"/>
</g>
<defs>
<clipPath id="clip0">
<rect width="44" height="44" fill="white"/>
</clipPath>
</defs>
</svg>
