<svg width="199" height="107" viewBox="0 0 199 107" fill="none" xmlns="http://www.w3.org/2000/svg">
<line x1="-3.20211e-08" y1="29.0012" x2="199" y2="29.0012" stroke="#6C6D80" stroke-opacity="0.77" stroke-width="0.75" stroke-dasharray="2 5"/>
<line x1="-3.20211e-08" y1="54.5869" x2="199" y2="54.5869" stroke="#6C6D80" stroke-opacity="0.77" stroke-width="0.75" stroke-dasharray="2 5"/>
<line x1="-3.20211e-08" y1="80.1726" x2="199" y2="80.1726" stroke="#6C6D80" stroke-opacity="0.77" stroke-width="0.75" stroke-dasharray="2 5"/>
<line x1="-3.20211e-08" y1="105.758" x2="199" y2="105.758" stroke="#6C6D80" stroke-opacity="0.77" stroke-width="0.75" stroke-dasharray="2 5"/>
<path d="M0 14.2143C0 10.5508 2.96985 7.58096 6.63333 7.58096C10.2968 7.58096 13.2667 10.5508 13.2667 14.2143V106.133H0V14.2143Z" fill="#F88081"/>
<path d="M53.0667 20.8476C53.0667 17.1841 56.0365 14.2143 59.7 14.2143C63.3635 14.2143 66.3333 17.1841 66.3333 20.8476V106.133H53.0667V20.8476Z" fill="#F88081"/>
<path d="M79.6 44.5381C79.6 40.8746 82.5699 37.9048 86.2333 37.9048C89.8968 37.9048 92.8667 40.8746 92.8667 44.5381V106.133H79.6V44.5381Z" fill="#FFD3D4"/>
<path d="M106.133 79.6C106.133 75.9365 109.103 72.9667 112.767 72.9667C116.43 72.9667 119.4 75.9365 119.4 79.6V106.133H106.133V79.6Z" fill="#F88081"/>
<path d="M132.667 39.8C132.667 36.1365 135.637 33.1667 139.3 33.1667C142.964 33.1667 145.933 36.1365 145.933 39.8V106.133H132.667V39.8Z" fill="#FFD3D4"/>
<path d="M159.2 6.63333C159.2 2.96985 162.17 0 165.833 0C169.497 0 172.467 2.96984 172.467 6.63333V106.133H159.2V6.63333Z" fill="#F88081"/>
<path d="M185.733 24.6381C185.733 20.9746 188.703 18.0048 192.367 18.0048C196.03 18.0048 199 20.9746 199 24.6381V106.133H185.733V24.6381Z" fill="#FFD3D4"/>
<path d="M26.5333 57.8047C26.5333 54.1413 29.5032 51.1714 33.1667 51.1714C36.8301 51.1714 39.8 54.1413 39.8 57.8047V106.133H26.5333V57.8047Z" fill="#FFD3D4"/>
</svg>
