<svg width="40" height="40" viewBox="0 0 40 40" fill="none" xmlns="http://www.w3.org/2000/svg">
<path d="M39.9616 17.4924L35.3518 3.30679C35.2184 2.89656 34.7778 2.67203 34.3673 2.80524L0.539985 13.7978C0.129677 13.9311 -0.0948525 14.3719 0.0384275 14.7823L2.22044 21.497C2.21981 21.5101 2.21848 21.523 2.21848 21.5363V36.4522C2.21848 36.8836 2.56832 37.2334 2.99973 37.2334H38.5684C38.9998 37.2334 39.3496 36.8836 39.3496 36.4522V21.5363C39.3496 21.1049 38.9998 20.7551 38.5684 20.7551H32.4497L39.4601 18.477C39.8703 18.3436 40.0948 17.9028 39.9616 17.4924ZM37.787 22.3175V35.6709H3.78089V22.3175H8.10835V31.0212C8.10835 31.4526 8.45819 31.8025 8.88959 31.8025C9.32099 31.8025 9.67083 31.4526 9.67083 31.0212V22.3175H27.5176H37.787ZM27.3939 20.7551H3.62222L1.76583 15.0424L5.88384 13.7042L7.45898 18.4913C7.56718 18.8201 7.87273 19.0286 8.20093 19.0286C8.28186 19.0286 8.36421 19.0159 8.4453 18.9892C8.85514 18.8543 9.0781 18.4128 8.94318 18.0029L7.36984 13.2212L34.1072 4.53264L38.2341 17.2324L27.3939 20.7551Z" fill="#F95E5E"/>
<path d="M32.9219 7.95691C32.7885 7.54668 32.3478 7.32223 31.9374 7.45535L11.5682 14.0746C11.1579 14.2079 10.9334 14.6487 11.0667 15.0591C11.174 15.3893 11.4802 15.5991 11.8096 15.5991C11.8896 15.5991 11.971 15.5867 12.0512 15.5607L32.4204 8.94143C32.8307 8.80807 33.0553 8.3673 32.9219 7.95691Z" fill="#F95E5E"/>
<path d="M29.4868 13.0315L33.3423 11.7786C33.7526 11.6453 33.9772 11.2045 33.8439 10.7941C33.7104 10.3838 33.2698 10.1593 32.8594 10.2925L29.0038 11.5454C28.5935 11.6788 28.369 12.1196 28.5022 12.5299C28.6096 12.8601 28.9157 13.0699 29.2451 13.0699C29.3251 13.0699 29.4066 13.0575 29.4868 13.0315Z" fill="#F95E5E"/>
<path d="M32.7452 16.6204C32.8526 16.9505 33.1588 17.1603 33.4881 17.1603C33.568 17.1603 33.6495 17.1479 33.7298 17.1219L34.9498 16.7254C35.3601 16.5921 35.5847 16.1513 35.4514 15.7409C35.3179 15.3306 34.8773 15.1061 34.4669 15.2394L33.2468 15.6358C32.8365 15.7692 32.6119 16.21 32.7452 16.6204Z" fill="#F95E5E"/>
<path d="M30.5219 16.5213L29.3018 16.9178C28.8915 17.0511 28.6669 17.4919 28.8002 17.9023C28.9075 18.2325 29.2137 18.4423 29.5431 18.4423C29.623 18.4423 29.7044 18.4299 29.7848 18.4039L31.0049 18.0074C31.4152 17.874 31.6397 17.4333 31.5065 17.0229C31.3732 16.6126 30.9328 16.3881 30.5219 16.5213Z" fill="#F95E5E"/>
<path d="M19.6195 14.595L12.4903 16.9117C12.08 17.0451 11.8554 17.4859 11.9887 17.8962C12.0961 18.2264 12.4022 18.4362 12.7316 18.4362C12.8115 18.4362 12.893 18.4238 12.9732 18.3978L20.1025 16.0811C20.5128 15.9478 20.7373 15.507 20.604 15.0966C20.4705 14.6863 20.0298 14.4618 19.6195 14.595Z" fill="#F95E5E"/>
<path d="M8.88958 32.8406C8.45818 32.8406 8.10834 33.1904 8.10834 33.6218V33.9278C8.10834 34.3592 8.45818 34.709 8.88958 34.709C9.32098 34.709 9.67082 34.3592 9.67082 33.9278V33.6218C9.67082 33.1904 9.32098 32.8406 8.88958 32.8406Z" fill="#F95E5E"/>
<path d="M12.6213 25.2078C12.6213 25.6392 12.9711 25.989 13.4025 25.989H34.8201C35.2515 25.989 35.6014 25.6392 35.6014 25.2078C35.6014 24.7764 35.2515 24.4265 34.8201 24.4265H13.4025C12.9711 24.4265 12.6213 24.7763 12.6213 25.2078Z" fill="#F95E5E"/>
<path d="M34.8201 27.4099H30.766C30.3346 27.4099 29.9848 27.7598 29.9848 28.1912C29.9848 28.6226 30.3346 28.9724 30.766 28.9724H34.8201C35.2515 28.9724 35.6014 28.6226 35.6014 28.1912C35.6014 27.7598 35.2515 27.4099 34.8201 27.4099Z" fill="#F95E5E"/>
<path d="M34.8202 32.6113H33.5372C33.1058 32.6113 32.756 32.9612 32.756 33.3926C32.756 33.824 33.1058 34.1738 33.5372 34.1738H34.8202C35.2516 34.1738 35.6014 33.824 35.6014 33.3926C35.6014 32.9612 35.2516 32.6113 34.8202 32.6113Z" fill="#F95E5E"/>
<path d="M30.6722 32.6113H29.3893C28.9579 32.6113 28.6081 32.9612 28.6081 33.3926C28.6081 33.824 28.9579 34.1738 29.3893 34.1738H30.6722C31.1036 34.1738 31.4535 33.824 31.4535 33.3926C31.4535 32.9612 31.1037 32.6113 30.6722 32.6113Z" fill="#F95E5E"/>
<path d="M20.8988 27.4099H13.4026C12.9712 27.4099 12.6213 27.7598 12.6213 28.1912C12.6213 28.6226 12.9712 28.9724 13.4026 28.9724H20.8988C21.3302 28.9724 21.68 28.6226 21.68 28.1912C21.68 27.7598 21.3302 27.4099 20.8988 27.4099Z" fill="#F95E5E"/>
</svg>
